<?xml version="1.0" encoding="iso-8859-1"?>
<!-- Uploaded to: SVG Repo, www.svgrepo.com, Generator: SVG Repo Mixer Tools -->
<!DOCTYPE svg PUBLIC "-//W3C//DTD SVG 1.1//EN" "http://www.w3.org/Graphics/SVG/1.1/DTD/svg11.dtd">
<svg fill="#000000" height="800px" width="800px" version="1.1" id="Capa_1" xmlns="http://www.w3.org/2000/svg" xmlns:xlink="http://www.w3.org/1999/xlink" 
	 viewBox="0 0 419.04 419.04" xml:space="preserve">
<path d="M396.288,341.476h-86.207c-0.071,0-0.143,0.002-0.213,0.001c-1.612,0-3.023-1.083-3.442-2.651l-15-55.979h1.43
	c18.196,0,33-14.804,33-33v-28.553c0-18.196-14.804-33-33-33H146.761l-9.879-36.868h103.389c5.523,0,10-4.477,10-10
	c0-5.523-4.477-10-10-10H131.523L105.699,35.05C100.17,14.413,81.401,0,60.057,0c-4.123,0-8.247,0.545-12.259,1.62
	C22.618,8.367,7.622,34.342,14.368,59.522l50.451,188.285c5.528,20.634,24.297,35.045,45.643,35.045
	c0.218,0,0.435-0.001,0.653-0.004h80.834V399.04h-80.246c-5.523,0-10,4.477-10,10c0,5.523,4.477,10,10,10h180.492
	c5.523,0,10-4.477,10-10c0-5.523-4.477-10-10-10H211.95V282.848h58.771l16.387,61.155c2.769,10.336,12.094,17.475,22.756,17.475
	c0.095,0,0.19-0.001,0.285-0.002h86.139c5.523,0,10-4.477,10-10C406.288,345.953,401.811,341.476,396.288,341.476z M52.974,20.938
	C55.298,20.316,57.681,20,60.057,20c12.309,0,23.133,8.317,26.324,20.227l24.437,91.2H54.34L33.687,54.346
	C29.794,39.818,38.446,24.831,52.974,20.938z M111.043,262.848c-0.052,0-0.104,0.001-0.157,0.001l-0.424,0.003
	c-12.309,0-23.135-8.315-26.325-20.222l-24.438-91.204h56.477l13.252,49.456c1.171,4.372,5.133,7.412,9.659,7.412h153.769
	c7.168,0,13,5.832,13,13v28.553c0,7.169-5.832,13-13,13H111.043z"/>
</svg>