<?xml version="1.0" encoding="iso-8859-1"?>
<!-- Uploaded to: SVG Repo, www.svgrepo.com, Generator: SVG Repo Mixer Tools -->
<svg fill="#000000" height="800px" width="800px" version="1.1" id="Layer_1" xmlns="http://www.w3.org/2000/svg" xmlns:xlink="http://www.w3.org/1999/xlink" 
	 viewBox="0 0 512 512" xml:space="preserve">
<g>
	<g>
		<g>
			<path d="M503.638,319.8c-10.664-15.564-34.192-26.831-68.242-11.788c-11.268,4.978-38.245,16.485-55.527,23.837
				c-0.959-1.421-1.985-2.788-3.094-4.082c-6.115-7.129-17.334-15.627-36.055-15.627c-30.823,0-71.425-5.367-110.69-10.557
				c-39.122-5.171-76.075-10.055-104.555-10.055H5.621v33.025h119.854c26.306,0,62.213,4.746,100.227,9.77
				c40.325,5.33,82.023,10.842,115.018,10.842c5.025,0,8.621,1.342,10.99,4.104c2.286,2.666,3.599,6.862,3.599,11.513
				c0,8.826-4.999,21.954-18.771,21.954H204.622v33.025h131.915c31.062,0,50.135-25.66,51.682-51.578
				c16.725-7.108,47.853-20.367,60.522-25.964c19.574-8.648,26.115-1.998,27.652,0.247c5.003,7.302,3.252,22.333-8.299,33.885
				c-49.863,49.863-130.857,100.176-199.399,100.176c-70.761,0-212.129-52.776-213.549-53.309l-5.701-2.141L0,434.98l11.243,31.053
				l38.046-13.776c28.264,10.301,150.38,53.295,219.408,53.295c83.333,0,172.077-59.175,222.751-109.849
				C513.165,373.985,518.407,341.353,503.638,319.8z"/>
			<path d="M193.009,198.891c37.179,26.27,50.288,44.995,51.174,46.298l13.785,23.291l14.091-23.281
				c0.83-1.223,13.914-19.976,51.181-46.308c50.815-35.903,76.618-62.46,76.618-107.977c0-22.916-8.483-44.107-23.887-59.668
				C360.14,15.254,338.03,6.448,313.712,6.448c-20.999,0-40.841,8.657-55.587,23.534c-14.747-14.877-34.589-23.534-55.587-23.534
				c-24.318,0-46.429,8.807-62.26,24.799c-15.404,15.562-23.888,36.752-23.888,59.668
				C116.39,136.43,142.192,162.988,193.009,198.891z M163.749,54.48c9.719-9.817,23.132-15.007,38.788-15.007
				c16.85,0,32.555,9.909,40.989,25.86l14.598,27.61l14.598-27.61c8.434-15.951,24.139-25.86,40.989-25.86
				c15.657,0,29.069,5.189,38.787,15.007c9.243,9.336,14.333,22.277,14.333,36.435c0,28.5-14.052,46.669-62.649,81.005
				c-22.048,15.579-36.723,28.953-46.058,38.705c-9.334-9.751-24.009-23.126-46.059-38.705
				c-48.598-34.335-62.65-52.505-62.65-81.004C149.416,76.757,154.506,63.817,163.749,54.48z"/>
		</g>
	</g>
</g>
</svg>