<?xml version="1.0" encoding="iso-8859-1"?>
<!-- Uploaded to: SVG Repo, www.svgrepo.com, Generator: SVG Repo Mixer Tools -->
<!DOCTYPE svg PUBLIC "-//W3C//DTD SVG 1.1//EN" "http://www.w3.org/Graphics/SVG/1.1/DTD/svg11.dtd">
<svg fill="#000000" version="1.1" id="Capa_1" xmlns="http://www.w3.org/2000/svg" xmlns:xlink="http://www.w3.org/1999/xlink" 
	 width="800px" height="800px" viewBox="0 0 496.062 496.062"
	 xml:space="preserve">
<g>
	<g>
		<g>
			<path d="M492.617,19.773c-2.468-2.707-5.963-4.223-9.624-4.223H296.41c-3.662,0-7.156,1.516-9.624,4.223
				c-2.479,2.694-3.706,6.304-3.399,9.962l1.529,17.985h209.571l1.527-17.985C496.322,26.077,495.1,22.468,492.617,19.773z"/>
			<polygon points="313.186,379.763 466.234,379.763 492.374,72.475 287.029,72.475 			"/>
			<path d="M314.638,448.179c0,17.857,14.473,32.332,32.328,32.332h85.485c17.857,0,32.329-14.475,32.329-32.332v-41.293H314.638
				V448.179z"/>
			<path d="M263.949,363.131H99.199l-66.238,30.04c-0.147,0.063-0.307,0.098-0.453,0.164v30.024
				c0,31.572,25.594,57.152,57.151,57.152h127.872c31.557,0,57.151-25.58,57.151-57.152v-49.495
				C274.683,367.935,269.879,363.131,263.949,363.131z"/>
			<path d="M215.195,310.54l-66.529,30.172h86.03c2.737,0,5.269-1.438,6.706-3.758c1.417-2.353,1.529-5.252,0.291-7.7
				c-4.291-8.352-11.849-14.539-20.875-17.117L215.195,310.54z"/>
			<path d="M225.944,265.976c0.999-2.674,0.903-5.623-0.274-8.218l-2.869-6.285c-4.223-9.317-13.408-14.829-23.013-14.829
				c-3.482,0-7.028,0.74-10.411,2.257L14.828,318.05c-12.699,5.755-18.324,20.729-12.572,33.428l2.854,6.301
				c1.178,2.578,3.335,4.612,5.998,5.61c1.205,0.45,2.495,0.677,3.769,0.677c1.532,0,3.049-0.321,4.45-0.95l200.994-91.142
				C222.916,270.797,224.929,268.651,225.944,265.976z"/>
		</g>
	</g>
</g>
</svg>