<?xml version="1.0" encoding="iso-8859-1"?>
<!-- Uploaded to: SVG Repo, www.svgrepo.com, Generator: SVG Repo Mixer Tools -->
<svg fill="#000000" height="800px" width="800px" version="1.1" id="Capa_1" xmlns="http://www.w3.org/2000/svg" xmlns:xlink="http://www.w3.org/1999/xlink" 
	 viewBox="0 0 296.555 296.555" xml:space="preserve">
<g>
	<path d="M295.683,96.043c-2.18-15.85-8.425-30.523-18.061-42.435c-8.948-11.063-20.564-19.295-32.71-23.182
		c-8.976-2.867-17.831-4.32-26.328-4.32c-21.176,0-40.368,9.127-54.483,25.805c-15.504-16.939-33.672-25.522-54.064-25.523
		c-7.944,0-16.223,1.357-24.607,4.035c-12.154,3.889-23.774,12.121-32.725,23.184c-9.639,11.912-15.886,26.588-18.066,42.439
		c-0.45,3.271-0.722,6.58-0.824,9.92c-7.899,2.941-15.325,8.416-21.082,15.586c-6.579,8.191-10.8,18.248-12.207,29.082
		c-2.234,17.207,2.685,35.756,14.226,53.643c12.819,19.867,33.815,39.189,62.405,57.432c2.624,1.674,5.616,2.512,8.606,2.512
		c2.991,0,5.981-0.838,8.606-2.512c9.059-5.781,17.35-11.67,24.864-17.65c9.379,7.32,19.497,14.564,30.346,21.719
		c4.632,3.057,10.021,4.674,15.581,4.674c5.559,0,10.946-1.615,15.582-4.672c43.654-28.793,75.516-59.029,94.699-89.873
		C292.169,149.008,299.168,121.393,295.683,96.043z M40.506,120.571c4.269-1.363,8.238-1.981,11.932-1.981
		c15.393,0,25.982,10.723,33.325,22.836c5.992-13.27,17.023-23.006,32.295-23.006c4.032,0,8.36,0.68,12.969,2.15
		c26.176,8.379,53.592,64.572-45.264,127.648C-13.097,185.143,14.318,128.949,40.506,120.571z"/>
</g>
</svg>